<svg xmlns="http://www.w3.org/2000/svg" viewBox="0 0 256 256"><g fill="none" stroke-width="2"><path stroke="#510000" stroke-opacity=".996" d="M226.65 42.32q-.7.36-.25.65M217.18 49.62l.19 10.82M226.66 70.71q-1.17 7.87-.15 13.4M234.71 103.23c-3.34 6.51-2.44 13.45-3.01 21.01q-.17 2.28 1.28 3.81M234.05 132.6c-.61 7.03-2.77 7.55-6.79 12.55a.94.93 54 0 0-.14.93l.9 2.27q.17.43-.14.78c-3.31 3.78-.86 9.3-4.11 14.21-2.92 4.42-8.66 5.21-11.08 9.99-2.74 5.38-4.06 9.42-8.99 14.6-2.06 2.16-4.53 3.18-7.12 4.58-6.93 3.72-10.15 9.69-18.18 12.03-8.99 2.61-15.82 7.06-17.36 16.76M158.85 222.84l.32-2.32q.08-.55-.42-.77c-3.29-1.49-12.75-6.91-15.8-6.41" vector-effect="non-scaling-stroke"/><path stroke="#ab0000" d="M142.01 212.25q4.07 1.36 6.35-1.67a1.28 1.26-75 0 1 .84-.49c5.28-.73 9.06-1.83 13.82-4.83 4.89-3.09 11.62-3.37 15.02-9.01a1.45 1.43-85.2 0 1 .7-.6c2.51-1.02 4.73-1.98 6.82-3.75 38.03-32.24 40.81-89.98 6.66-126.44q-.32-.34-.22-.79.18-.8-.56-.66a1.03 1.03 0 0 1-.94-.29q-8.53-8.89-19.41-14.55-.37-.19-.45.21l-.51 2.39M142.77 48.16l14.13-.7q.04 0 .04-.04 0-.02-.01-.04-.01-.13-.18-.13h-5.01a1.07 1.05 71 0 1-.84-.42q-1.1-1.52-2.2-1.79C80.27 28.1 23.76 97.45 53.57 161.17c1.63 3.47 4.54 7.4 6.9 11.6 5.65 10.05 16.7 17.67 28.62 25.62q1.97 1.32 10.14 4.24a1.81 1.77 79.8 0 1 .83.59q1.14 1.43 2.92 1.79a.59.58-77.9 0 0 .7-.46l.31-1.58q.18-.89.25.01.02.32.09.54a.12.12 0 0 0 .24-.03l.39-5.01" vector-effect="non-scaling-stroke"/><path stroke="#510000" stroke-opacity=".996" d="M102.02 210q-4.32-2.74-11.32-1.6c-3.47.57-6.13-.88-9.37-1.87M75.54 198.46q-.55-1.69-1.98-2.27-5.43-2.23-8.64-3.91M64.49 192.2l-3.04-1.44M56.59 187.93q-2.61-1.78-7.09-1.18-7.59 1.01-15.28 1.96M39.75 150.99c-.65-4.29-10.81-2.21-14.17-2.24M26.81 134.07q.78-1 .25-1.38-.69-.51-1.84.56M9.85 137.43q-.95-.24-3.04.67" vector-effect="non-scaling-stroke"/><path stroke="#c70000" d="M108.59 65.29q-1.68.93-3.81 1.44-2.54.61-3.83 1.23c-46.9 22.71-48.27 87.52-3.1 113.3 1.78 1.01 3.31 2.65 5.3 3.65q.39.21.61-.19l.25-.48q.15-.27.21.03l.08.41a.17.17 0 0 0 .33-.03l.32-15.91M142.03 179.24l.2 8.14q0 .06.05.06h.07q.14-.01.14-.19l.03-3.19a.27.27 0 0 1 .41-.23l.23.13q.3.18.63.08 24.44-7.16 36.74-27.86c13.02-21.92 10.87-51.69-6.98-70.63q-2.53-2.68-5.05-5.44-.32-.35-.78-.35l-14.15-.05" vector-effect="non-scaling-stroke"/><path stroke="#6d0000" stroke-opacity=".996" d="M104.51 85.16c-1.24 4.06.23 7.25.24 10.74q.01 5.58-.01 10.7 0 1.41-1.41 1.39l-17.01-.32q-.62-.01-.61.62l.39 20.96" vector-effect="non-scaling-stroke"/><path stroke="#350000" stroke-opacity=".996" d="m33.03 40.96-6.23.48M30.72 62.79l-3.88.83M17.69 222.96l-1.97 1.47M233.62 222.99c-3.13 1.95-3.84 4.91-5.83 6.85q-3.25 3.19-7.91 4.79" vector-effect="non-scaling-stroke"/></g><path fill="#9e0000" d="M226.65 42.32q-.7.36-.25.65-5.7 2.25-9.22 6.65l.19 10.82 1.69 3.76a1.67 1.66 3.8 0 0 .65.74q4.41 2.73 6.95 5.77-1.17 7.87-.15 13.4 3.86 6.94 6.99 13.83.53 1.17.74 2.6.19 1.36.47 2.69c-3.34 6.51-2.44 13.45-3.01 21.01q-.17 2.28 1.28 3.81l1.07 4.55c-.61 7.03-2.77 7.55-6.79 12.55a.94.93 54 0 0-.14.93l.9 2.27q.17.43-.14.78c-3.31 3.78-.86 9.3-4.11 14.21-2.92 4.42-8.66 5.21-11.08 9.99-2.74 5.38-4.06 9.42-8.99 14.6-2.06 2.16-4.53 3.18-7.12 4.58-6.93 3.72-10.15 9.69-18.18 12.03-8.99 2.61-15.82 7.06-17.36 16.76q-.26 2.1-.31 3.96c-.12 4.14 2.87 6.18 1.55 10.7q-1.33 4.54-1.82 9.26-.05.52-.58.49c-3.74-.26-2.76-10.34-2.93-12.65-.29-3.85.96-6.68 1.9-10.22l.32-2.32q.08-.55-.42-.77c-3.29-1.49-12.75-6.91-15.8-6.41q-.65-.15-.94-1.09 4.07 1.36 6.35-1.67a1.28 1.26-75 0 1 .84-.49c5.28-.73 9.06-1.83 13.82-4.83 4.89-3.09 11.62-3.37 15.02-9.01a1.45 1.43-85.2 0 1 .7-.6c2.51-1.02 4.73-1.98 6.82-3.75 38.03-32.24 40.81-89.98 6.66-126.44q-.32-.34-.22-.79.18-.8-.56-.66a1.03 1.03 0 0 1-.94-.29q-8.53-8.89-19.41-14.55-.37-.19-.45.21l-.51 2.39-.18-2.97q-.04-.59-.63-.59l-26.55-.05 14.13-.7q.04 0 .04-.04 0-.02-.01-.04-.01-.13-.18-.13h-5.01a1.07 1.05 71 0 1-.84-.42q-1.1-1.52-2.2-1.79C80.27 28.1 23.76 97.45 53.57 161.17c1.63 3.47 4.54 7.4 6.9 11.6 5.65 10.05 16.7 17.67 28.62 25.62q1.97 1.32 10.14 4.24a1.81 1.77 79.8 0 1 .83.59q1.14 1.43 2.92 1.79a.59.58-77.9 0 0 .7-.46l.31-1.58q.18-.89.25.01.02.32.09.54a.12.12 0 0 0 .24-.03l.39-5.01-.04 13.66q0 .64-.62.49-1.43-.33-2.28-2.63-4.32-2.74-11.32-1.6c-3.47.57-6.13-.88-9.37-1.87l-5.79-8.07q-.55-1.69-1.98-2.27-5.43-2.23-8.64-3.91.21.83-.43-.08l-3.04-1.44q-1.9-.68-4.06-.29-.54.1-.59-.44l-.21-2.1q-2.61-1.78-7.09-1.18-7.59 1.01-15.28 1.96l-4.82.27a1.26 1.25-68.9 0 0-.85.38l-5.01 5.19a1.06 1.06 0 0 1-1.82-.66c-.08-.9.88-1.84 1.77-2.2q3.81-1.57 6.86-4.33 8.87-7.98 19.21-13.93a1.34 1.32-9.3 0 0 .65-.89q.68-3.13-1.82-6.21-4.87-5.99-8.64-15.34c-.65-4.29-10.81-2.21-14.17-2.24q-6.6 2.33-13.15 5.63c-1.5.75-3.43.86-5.02 1.12a.98.98 0 0 1-.53-1.88l17.28-6.97q.7-.29.35-.97l-1.33-2.57q-.2-.39-.12-.81.9-4.69 3.75-8.23.78-1 .25-1.38-.69-.51-1.84.56c-1.38-.04-2.46-.12-3.8.45q-5.48 2.33-11.57 3.73-.95-.24-3.04.67c-3.2-.4-2.15-3.74.69-3.66q3.37.08 6.28-1.45a1.48 1.46-2 0 0 .68-.72c1.11-2.45 3.51-2.94 5-4.07 1.31-1 3.54-3.14 5.24-2.93 1.88.23 2.26 2.81 2.8 4.21q.19.49.68.32c3.26-1.1 4-3.41 3-6.68-1.23-3.96-2.31-7.7-2.22-11.93q.3-13.41 3.16-22.7 1.55-5.04 6.49-11.99c3.28-4.62.63-13.22 4.64-16.56 3.89-3.24 6.89-6.47 11.42-9.25 5.39-3.31 9.16-8.53 13.39-11.83 8.48-6.62 18.42-11.01 28.6-15.06 8.07-3.22 15.63-3.08 24.35-2.7 4.85.21 9.6-5.59 13.42-8.45q.45-.34.47-.9l.22-6.25a.33.33 0 0 1 .63-.12q1.53 3.66 2.53 7.61c.94 3.7 1.05 5.59 4.99 6.73a1.19 1.18 36.9 0 0 .94-.13q7.1-4.46 12.9.65c3.21 2.82 8.64 4.04 12.62 5.51 4.47 1.67 10.27-4.04 14.23 2.56q3.27 5.46 8.97 6.26c4.98.7 8.27 5.71 11.74 9.93 2.92 3.57 9.13 5.59 13.12 2.63q3.72-2.76 7.6-6.14a1.07 1.07 0 0 1 1.65.3q.32.6-.39 1.03Z"/><path fill="#670000" d="m141.28 15.85-.31.18q-.43.26-.47-.24l-.33-3.42a.64.63-69.4 0 1 1.09-.5q1.23 1.32 1.45 3.27.05.43-.16.66-.39.45-1.05.05a.2.2 0 0 0-.22 0ZM14.19 30.33q-.9-.15-1.19-1.01a1.36 1.36 0 0 1 1.94-1.63q2.74 1.48 5.67 1.63c2.7.14 9.91 2.16 10.74 5.17a.52.52 0 0 1-.67.64q-3.81-1.3-7.72-.69-.55.08-1.01-.23l-4.19-2.86a.93.92 54.3 0 0-.78-.13q-1.29.37-2.11-.53-.28-.29-.68-.36Z"/><ellipse fill="#670000" rx="3.66" ry="1.49" transform="rotate(19.6 -83.31 130.532)"/><path fill="#670000" d="m33.03 40.96-6.23.48q-2.2-1.85-2.69-3.88a1.49 1.49 0 0 1 2.01-1.73c3.61 1.49 6.34 3.94 10.05 4.83 2.39.57 9.64.94 9.67 3.95a.36.36 0 0 1-.47.35l-12.34-4Z"/><path fill="#030101" fill-opacity=".992" d="M33.03 40.96q-3.58 1.15-6.23.48l6.23-.48ZM226.65 42.32q.76.98.84 1.65a.29.28 29.2 0 1-.54.15l-.55-1.15q-.45-.29.25-.65Z"/><path fill="#b70000" d="M142.77 48.16c-14.18-.29-27.41 4.6-34.18 17.13q-1.68.93-3.81 1.44-2.54.61-3.83 1.23c-46.9 22.71-48.27 87.52-3.1 113.3 1.78 1.01 3.31 2.65 5.3 3.65q.39.21.61-.19l.25-.48q.15-.27.21.03l.08.41a.17.17 0 0 0 .33-.03l.32-15.91.01 29.74-.39 5.01a.12.12 0 0 1-.24.03q-.07-.22-.09-.54-.07-.9-.25-.01l-.31 1.58a.59.58-77.9 0 1-.7.46q-1.78-.36-2.92-1.79a1.81 1.77 79.8 0 0-.83-.59q-8.17-2.92-10.14-4.24c-11.92-7.95-22.97-15.57-28.62-25.62-2.36-4.2-5.27-8.13-6.9-11.6C23.76 97.45 80.27 28.1 148.7 45.04q1.1.27 2.2 1.79a1.07 1.05 71 0 0 .84.42h5.01q.17 0 .18.13.01.02.01.04 0 .04-.04.04l-14.13.7ZM142.01 212.25l.02-33.01.2 8.14q0 .06.05.06h.07q.14-.01.14-.19l.03-3.19a.27.27 0 0 1 .41-.23l.23.13q.3.18.63.08 24.44-7.16 36.74-27.86c13.02-21.92 10.87-51.69-6.98-70.63q-2.53-2.68-5.05-5.44-.32-.35-.78-.35l-14.15-.05 15.73-.15a.8.8 0 0 0 .79-.79l.04-27 .51-2.39q.08-.4.45-.21 10.88 5.66 19.41 14.55a1.03 1.03 0 0 0 .94.29q.74-.14.56.66-.1.45.22.79c34.15 36.46 31.37 94.2-6.66 126.44-2.09 1.77-4.31 2.73-6.82 3.75a1.45 1.43-85.2 0 0-.7.6c-3.4 5.64-10.13 5.92-15.02 9.01-4.76 3-8.54 4.1-13.82 4.83a1.28 1.26-75 0 0-.84.49q-2.28 3.03-6.35 1.67Z"/><path fill="#030101" fill-opacity=".992" d="M217.18 49.62q1.68 5.32.19 10.82l-.19-10.82Z"/><path fill="#670000" d="m30.72 62.79-3.88.83q-2.23-1.37-2.93-4.49a.87.85 60 0 1 .2-.77q1.33-1.47 2.99-.74 3.25 1.43 8.07 1.97 1.82.2 1.48 1.92-.11.56-.63.32-2.02-.94-4.33-.52-.45.09-.62.53l-.35.95Z"/><path fill="#030101" fill-opacity=".992" d="m30.72 62.79.04.43q.05.52-.48.51l-3.44-.11 3.88-.83Z"/><path fill="#d70000" d="M108.59 65.29q-4.31 9.6-4.08 19.87c-1.24 4.06.23 7.25.24 10.74q.01 5.58-.01 10.7 0 1.41-1.41 1.39l-17.01-.32q-.62-.01-.61.62l.39 20.96-.27 8.91a.77.76 1.8 0 0 .75.79l16.68.36q1.34.03 1.36 1.38l.33 28.05-.32 15.91a.17.17 0 0 1-.33.03l-.08-.41q-.06-.3-.21-.03l-.25.48q-.22.4-.61.19c-1.99-1-3.52-2.64-5.3-3.65-45.17-25.78-43.8-90.59 3.1-113.3q1.29-.62 3.83-1.23 2.13-.51 3.81-1.44Z"/><path fill="#030101" fill-opacity=".992" d="M226.66 70.71c.95 4.57.44 8.88-.15 13.4q-1.02-5.53.15-13.4Z"/><path fill="#d70000" d="m153.57 79.71 14.15.05q.46 0 .78.35 2.52 2.76 5.05 5.44c17.85 18.94 20 48.71 6.98 70.63q-12.3 20.7-36.74 27.86-.33.1-.63-.08l-.23-.13a.27.27 0 0 0-.41.23l-.03 3.19q0 .18-.14.19h-.07q-.05 0-.05-.06l-.2-8.14-.02-39.61a.42.42 0 0 1 .42-.42l24.05.06q.52 0 .57-.52l3.32-30.8a.41.41 0 0 0-.41-.45h-27.42q-.47 0-.48-.47-.22-8.61.03-17.05c.22-7.43 3.79-10.79 11.48-10.27Z"/><path fill="#030101" fill-opacity=".992" d="m104.51 85.16.39 22.17q.03 1.66-1.63 1.63l-15.92-.23q-1.2-.02-1.2 1.17l-.05 19.35-.39-20.96q-.01-.63.61-.62l17.01.32q1.41.02 1.41-1.39.02-5.12.01-10.7c-.01-3.49-1.48-6.68-.24-10.74Z"/><path fill="#670000" d="M248.12 97.89c-1.65 3.31-2.75 5.81-6.31 7.41a1.28 1.28 0 0 1-1.66-1.77c1.86-3.53 4.15-4.27 6.95-6.62 1.14-.96 1.62-2.66 2.87-3.39a.98.98 0 0 1 1.42 1.17q-.63 1.81-2.51 2.51a1.43 1.37-86.1 0 0-.76.69Z"/><path fill="#030101" fill-opacity=".992" d="M234.71 103.23q-1.44 6.67-1.42 13.07c.01 3.69-.71 7.77-.31 11.75q-1.45-1.53-1.28-3.81c.57-7.56-.33-14.5 3.01-21.01Z"/><path fill="#670000" d="M8.75 125.29q1.4-2.05 4-1.47a1.47 1.46-53.6 0 0 1.04-.16q3.53-2 7.45-2.77a.74.73-69 0 1 .58 1.31c-3.58 2.67-7.77 1.99-10.94 4.93a1.42 1.42 0 0 1-2.13-1.84Z"/><path fill="#030101" fill-opacity=".992" d="M12 128.75q-.06.47-.59.05a.73.73 0 0 1 .14-1.22l.74-.35a.38.38 0 0 1 .45.6l-.67.77a.26.24 73 0 0-.07.15ZM26.81 134.07q-.48-1.03-1.59-.82 1.15-1.07 1.84-.56.53.38-.25 1.38ZM234.05 132.6q1.58 7.71-4.95 12.02-1.91 1.26-.55 3.87.24.47.04.96l-1.46 3.51q-.22.54-.15 1.12.29 2.32-.4 4.5-.1.32.12.56.64.7.28 1.84-2.38 7.52-9.96 9.49-.52.13-.85.56l-3.99 5.12a1.31 1.3-30.8 0 0-.26 1.01c.52 3.3-1.4 5.92-3.54 8.49-2.23 2.68-3.92 5.43-7.37 6.84q-6.85 2.81-11.31 7.86a1.03 1.03 0 0 1-.76.36q-.61.01-.83.18-4.4 3.32-9.57 4.91-4.33 1.33-6.06 2.35c-3.63 2.14-6.42 3.79-8.42 7.81q-1.41 2.84-3.02 5.34c1.54-9.7 8.37-14.15 17.36-16.76 8.03-2.34 11.25-8.31 18.18-12.03 2.59-1.4 5.06-2.42 7.12-4.58 4.93-5.18 6.25-9.22 8.99-14.6 2.42-4.78 8.16-5.57 11.08-9.99 3.25-4.91.8-10.43 4.11-14.21q.31-.35.14-.78l-.9-2.27a.94.93 54 0 1 .14-.93c4.02-5 6.18-5.52 6.79-12.55ZM9.85 137.43q1.34 2.53-3.04.67 2.09-.91 3.04-.67ZM39.75 150.99c-3.84-3.45-9.12-1.22-14.17-2.24 3.36.03 13.52-2.05 14.17 2.24ZM56.59 187.93q-1.18.1-2.22-.34a1.52 1.49-40.3 0 0-.97-.07q-9.59 2.55-19.18 1.19 7.69-.95 15.28-1.96 4.48-.6 7.09 1.18Z"/><ellipse fill="#030101" fill-opacity=".992" rx="1.04" ry=".68" transform="rotate(114.4 -35.037 112.62)"/><path fill="#030101" fill-opacity=".992" d="m61.45 190.76 3.04 1.44q-2.63-.02-3.04-1.44ZM64.92 192.28q3.21 1.68 8.64 3.91 1.43.58 1.98 2.27l-2.75-1.68q-.41-.25-.89-.33-2.14-.37-3.73-1.89-.37-.36-.88-.36-2-.04-2.37-1.92Z"/><path fill="#670000" d="m17.69 222.96-1.97 1.47q-.69.8-1.48.84a1.25 1.25 0 0 1-1.21-1.78c1.23-2.69 3.69-2.62 5.39-3.76 2.88-1.93 4.89-5 7.4-7.06 2.67-2.2 3.9-4.86 7.93-5.4a1.55 1.51-72.4 0 0 .97-.52q3.92-4.56 9.04-7.72a.39.39 0 0 1 .58.43c-1.31 4.65-8.31 7.05-11.54 10.88-1.14 1.34-2.63 1.92-3.85 3.12-3.57 3.52-7.61 4.94-11.26 9.5ZM203.76 202.72a1.11 1.11 0 0 1 1.68-.99c3.72 2.21 1.77 6.59 2.23 10.16q.67 5.18 1.03 10.39.06.82-.49.21c-2.53-2.77-2.37-7.91-2.76-12.6-.2-2.32-1.61-4.64-1.69-7.17ZM49.56 206.44c1.94 1 2.89 3.23 3.56 5.17q.15.46.57.71 3.53 2.11 5.57 5.68a.39.39 0 0 1-.55.52q-3.19-2.03-4.89-5.42a1.24 1.2-2.2 0 0-.65-.58q-3.43-1.26-5.19-4.46a1.18 1.18 0 0 1 1.58-1.62Z"/><path fill="#030101" fill-opacity=".992" d="M81.33 206.53c3.24.99 5.9 2.44 9.37 1.87q7-1.14 11.32 1.6-1.99-.1-4.02-.18c-7.02-.27-10.59 2.01-16.67-3.29ZM142.95 213.34c3.05-.5 12.51 4.92 15.8 6.41q.5.22.42.77l-.32 2.32q.07-1.94-.66-2.28-7.65-3.48-15.24-7.22Z"/><path fill="#670000" d="M233.62 222.99c-3.13 1.95-3.84 4.91-5.83 6.85q-3.25 3.19-7.91 4.79-3.04-4.18.55-6.48 6.12-3.92 10.01-7.15.39-.32.89-.29 1.83.08 2.29 2.28Z"/><path fill="#030101" fill-opacity=".992" d="m17.69 222.96.06 1.02q.02.53-.5.51l-1.53-.06 1.97-1.47ZM233.62 222.99q.34 1.77-1.82 3.04a1.6 1.53 88.7 0 0-.62.68q-3.96 8.5-11.3 7.92 4.66-1.6 7.91-4.79c1.99-1.94 2.7-4.9 5.83-6.85Z"/><path fill="#670000" d="M133.69 245.93a.7.7 0 0 1-.72-.68v-.21a17.53 1.79 88.7 0 1 1.39-17.57h.06a17.53 1.79 88.7 0 1 2.19 17.49v.21a.7.7 0 0 1-.68.71l-2.24.05Z"/><path fill="#670000" d="M119.56 230.33a.27.27 0 0 1 .22.31l-.03.18A11.51 1.08-80.6 0 1 116.8 242h-.02a11.51 1.08-80.6 0 1 .82-11.53l.03-.18a.27.27 0 0 1 .31-.22l1.62.26Z"/></svg>